<?xml version="1.0" encoding="UTF-8"?>
<svg id="Camada_2" data-name="Camada 2" xmlns="http://www.w3.org/2000/svg" xmlns:xlink="http://www.w3.org/1999/xlink" viewBox="0 0 150 150">
  <defs>
    <style>
      .cls-1 {
        fill: url(#Gradiente_sem_nome_26);
      }

      .cls-2 {
        fill: url(#Gradiente_sem_nome_42);
      }

      .cls-3 {
        fill: #fff;
      }

      .cls-4 {
        fill: url(#Gradiente_sem_nome_26-2);
      }

      .cls-5 {
        opacity: .2;
      }

      .cls-6 {
        opacity: .5;
      }
    </style>
    <linearGradient id="Gradiente_sem_nome_26" data-name="Gradiente sem nome 26" x1="90" y1="10.21" x2="90" y2="131.89" gradientUnits="userSpaceOnUse">
      <stop offset="0" stop-color="#fff"/>
      <stop offset=".4" stop-color="#fafafa"/>
      <stop offset=".81" stop-color="#eee"/>
      <stop offset=".99" stop-color="#e6e6e6"/>
    </linearGradient>
    <linearGradient id="Gradiente_sem_nome_26-2" data-name="Gradiente sem nome 26" x1="47.14" y1="10.21" x2="47.14" y2="131.89" xlink:href="#Gradiente_sem_nome_26"/>
    <linearGradient id="Gradiente_sem_nome_42" data-name="Gradiente sem nome 42" x1="69.14" y1="52.53" x2="35.95" y2="97.49" gradientUnits="userSpaceOnUse">
      <stop offset="0" stop-color="#3b1c7f"/>
      <stop offset=".27" stop-color="#3b1c7f" stop-opacity=".71"/>
      <stop offset=".76" stop-color="#3b1c7f" stop-opacity=".2"/>
      <stop offset="1" stop-color="#3b1c7f" stop-opacity="0"/>
    </linearGradient>
  </defs>
  <path d="M133.24,118.47c-3.26-7.73-11.61-10.22-16.62-11.02l-7.64-46.26c-.04-.24-.09-.48-.16-.73l-11.19-41.65c-1.26-4.68-5.52-7.95-10.36-7.95h-33.66c-2.56,0-4.91,1.3-6.26,3.47-.7,1.11-1.07,2.36-1.12,3.62,0,.02,0,.03,0,.05l-1.98,45.88c-16.14,29.05-22.43,42.6-25.47,49.15-.79,1.7-1.36,2.93-1.79,3.75-.69,1.31-.89,2.74-.68,4.07-.28,1.75.15,3.52,1.29,4.85,12.1,14.25,32.87,14.69,35.33,14.69.1,0,.17,0,.21,0,1.61-.02,3.04-1.01,3.65-2.5.97-2.38,1.26-4.75,1.14-7.02.4-6.25-2.81-11.95-5.31-15.37l21.24-34.69c10.43,37.11,15.34,50.98,17.62,56.02,1.2,2.64,3.9,4.3,6.75,4.3.47,0,.95-.04,1.42-.14,16.54-3.28,26.4-8.64,30.8-11.54,2.45-1.62,3.68-4.45,3.3-7.19.18-1.26.03-2.56-.49-3.79Z"/>
  <g>
    <g>
      <path class="cls-1" d="M93.76,19.77l11.19,41.65c.03.11.05.22.07.33l7.71,46.69c.24,1.45,1.38,2.62,2.84,2.83,3.88.56,11.35,2.45,13.97,8.68.63,1.48.02,3.2-1.32,4.09-3.87,2.55-13.28,7.77-29.38,10.96-1.52.3-3.1-.48-3.75-1.89-2.13-4.7-7.21-18.79-18.93-60.84-.06-.22-.14-.43-.25-.63l-1.85-3.63-23.53-48.33c-1.1-2.25.54-4.87,3.05-4.87h33.66c3.04,0,5.71,2.04,6.5,4.98Z"/>
      <path class="cls-4" d="M74.08,68l-23.88-49.9-2.03,46.83c-20.83,37.45-25.44,49.39-27.67,53.64-.41.79-.46,1.8.11,2.48,11.53,13.58,32.43,13.28,32.43,13.28,3.84-9.47-6.07-19.39-6.07-19.39l24.38-39.81,2.72-7.12Z"/>
    </g>
    <g>
      <g class="cls-6">
        <path class="cls-2" d="M74.08,68.04l-23.88-49.9-2.03,46.83c-20.83,37.45-25.44,49.39-27.67,53.64-.41.79-.46,1.8.11,2.48,11.53,13.58,32.43,13.28,32.43,13.28,3.84-9.47-6.07-19.39-6.07-19.39l24.38-39.81,2.72-7.12Z"/>
      </g>
      <g class="cls-5">
        <path d="M129.33,119.59c-.27.49-.62.94-1.1,1.26-3.87,2.55-13.28,7.77-29.38,10.96-1.52.3-3.1-.48-3.75-1.89-2.13-4.7-7.21-18.79-18.93-60.84-.06-.22-.14-.43-.25-.63l-1.85-3.63-23.88-46.68,23.19,48.47.68,1.43,1.85,3.63c.1.2.19.42.25.63,11.72,42.05,16.79,56.14,18.93,60.84.64,1.42,2.22,2.2,3.75,1.89,16.1-3.19,25.51-8.41,29.38-10.96,1.34-.89,1.95-2.61,1.32-4.09-.06-.14-.15-.25-.22-.39Z"/>
        <path d="M71.36,71.93s-24.35,41.38-24.38,43.03c0,.26,24.38-39.81,24.38-39.81l2.72-7.12-.69-1.42-2.03,5.31Z"/>
        <path d="M53.06,131.13s-20.7.29-32.27-13.1c-.1.19-.2.4-.28.56-.41.79-.46,1.8.11,2.48,11.53,13.58,32.43,13.28,32.43,13.28.85-2.1,1-4.22.76-6.25-.13,1.01-.35,2.02-.76,3.03Z"/>
      </g>
      <g class="cls-5">
        <path class="cls-3" d="M53.82,128.11c-.61-7.08-6.93-13.22-6.8-13.14l-.78,1.98s5.21,3.67,7.58,11.16Z"/>
        <path class="cls-3" d="M115.57,111.3c-1.46-.21-2.6-1.37-2.84-2.83l-7.71-46.69c-.02-.11-.04-.22-.07-.33l-11.19-41.65c-.79-2.94-3.46-4.98-6.5-4.98h-33.66c-1.95,0-3.35,1.58-3.37,3.35l.63,1.31c.6-.85,1.57-1.44,2.75-1.44h33.66c3.04,0,5.71,2.04,6.5,4.98l11.19,41.65c.03.11.05.22.07.33l7.71,46.69c.24,1.45,1.38,2.62,2.84,2.83,3.79.55,10.97,2.39,13.75,8.29.47-.86.62-1.88.22-2.83-2.63-6.23-10.09-8.12-13.98-8.68Z"/>
        <path class="cls-3" d="M48.18,64.96c-20.83,37.45-25.44,49.39-27.67,53.64-.41.79-.46,1.8.11,2.48.05.06.11.12.17.18,2.34-4.69,7.37-17.1,28.28-53.97,0,0,1.14-48.61,1.15-49.11l-.02-.04-2.03,46.83Z"/>
      </g>
    </g>
  </g>
</svg>