<?xml version="1.0" encoding="UTF-8"?>
<svg id="Camada_2" data-name="Camada 2" xmlns="http://www.w3.org/2000/svg" xmlns:xlink="http://www.w3.org/1999/xlink" viewBox="0 0 800 150">
  <defs>
    <style>
      .cls-1 {
        fill: url(#Gradiente_sem_nome_26-4);
      }

      .cls-2 {
        fill: url(#Gradiente_sem_nome_30-2);
      }

      .cls-3 {
        fill: url(#Gradiente_sem_nome_30-3);
      }

      .cls-4 {
        fill: url(#Gradiente_sem_nome_30-4);
      }

      .cls-5 {
        fill: url(#Gradiente_sem_nome_26);
      }

      .cls-6 {
        fill: #fff;
      }

      .cls-7 {
        fill: url(#Gradiente_sem_nome_26-3);
      }

      .cls-8 {
        fill: url(#Gradiente_sem_nome_26-6);
      }

      .cls-9 {
        fill: url(#Gradiente_sem_nome_26-2);
      }

      .cls-10 {
        fill: url(#Gradiente_sem_nome_15);
      }

      .cls-11 {
        fill: url(#Gradiente_sem_nome_30-6);
      }

      .cls-12 {
        opacity: .2;
      }

      .cls-13 {
        fill: url(#Gradiente_sem_nome_30);
      }

      .cls-14 {
        fill: url(#Gradiente_sem_nome_30-5);
      }

      .cls-15 {
        fill: url(#Gradiente_sem_nome_26-5);
      }

      .cls-16 {
        opacity: .5;
      }
    </style>
    <linearGradient id="Gradiente_sem_nome_26" data-name="Gradiente sem nome 26" x1="132.31" y1="12.04" x2="132.31" y2="133.22" gradientUnits="userSpaceOnUse">
      <stop offset="0" stop-color="#fff"/>
      <stop offset=".4" stop-color="#fafafa"/>
      <stop offset=".81" stop-color="#eee"/>
      <stop offset=".99" stop-color="#e6e6e6"/>
    </linearGradient>
    <linearGradient id="Gradiente_sem_nome_26-2" data-name="Gradiente sem nome 26" x1="89.62" y1="12.04" x2="89.62" y2="133.22" xlink:href="#Gradiente_sem_nome_26"/>
    <linearGradient id="Gradiente_sem_nome_26-3" data-name="Gradiente sem nome 26" x1="37.59" y1="12.04" x2="37.59" y2="133.22" xlink:href="#Gradiente_sem_nome_26"/>
    <linearGradient id="Gradiente_sem_nome_26-4" data-name="Gradiente sem nome 26" x1="209.92" y1="12.04" x2="209.92" y2="133.22" xlink:href="#Gradiente_sem_nome_26"/>
    <linearGradient id="Gradiente_sem_nome_26-5" data-name="Gradiente sem nome 26" x1="283.29" y1="12.04" x2="283.29" y2="133.22" xlink:href="#Gradiente_sem_nome_26"/>
    <linearGradient id="Gradiente_sem_nome_26-6" data-name="Gradiente sem nome 26" x1="358.12" y1="12.04" x2="358.12" y2="133.22" xlink:href="#Gradiente_sem_nome_26"/>
    <linearGradient id="Gradiente_sem_nome_15" data-name="Gradiente sem nome 15" x1="111.53" y1="54.14" x2="78.47" y2="98.92" gradientUnits="userSpaceOnUse">
      <stop offset="0" stop-color="#ec4899"/>
      <stop offset=".16" stop-color="#e248a1" stop-opacity=".82"/>
      <stop offset=".57" stop-color="#c948b8" stop-opacity=".38"/>
      <stop offset=".86" stop-color="#ba48c6" stop-opacity=".11"/>
      <stop offset=".99" stop-color="#b449cc" stop-opacity="0"/>
    </linearGradient>
    <linearGradient id="Gradiente_sem_nome_30" data-name="Gradiente sem nome 30" x1="435.45" y1="13.29" x2="435.45" y2="131.5" gradientUnits="userSpaceOnUse">
      <stop offset="0" stop-color="#f472b6"/>
      <stop offset=".3" stop-color="#f36db3"/>
      <stop offset=".62" stop-color="#f061aa"/>
      <stop offset=".93" stop-color="#ec4c9c"/>
      <stop offset=".99" stop-color="#ec4899"/>
    </linearGradient>
    <linearGradient id="Gradiente_sem_nome_30-2" data-name="Gradiente sem nome 30" x1="498.34" y1="13.29" x2="498.34" y2="131.5" xlink:href="#Gradiente_sem_nome_30"/>
    <linearGradient id="Gradiente_sem_nome_30-3" data-name="Gradiente sem nome 30" x1="559.9" y1="13.29" x2="559.9" y2="131.5" xlink:href="#Gradiente_sem_nome_30"/>
    <linearGradient id="Gradiente_sem_nome_30-4" data-name="Gradiente sem nome 30" x1="625.8" y1="13.29" x2="625.8" y2="131.5" xlink:href="#Gradiente_sem_nome_30"/>
    <linearGradient id="Gradiente_sem_nome_30-5" data-name="Gradiente sem nome 30" x1="694.44" y1="13.29" x2="694.44" y2="131.5" xlink:href="#Gradiente_sem_nome_30"/>
    <linearGradient id="Gradiente_sem_nome_30-6" data-name="Gradiente sem nome 30" x1="759.92" y1="13.29" x2="759.92" y2="131.5" xlink:href="#Gradiente_sem_nome_30"/>
  </defs>
  <g>
    <g>
      <path class="cls-5" d="M136.06,21.56l11.14,41.48c.03.11.05.22.07.33l7.68,46.5c.24,1.45,1.37,2.61,2.83,2.82,3.87.56,11.3,2.44,13.92,8.65.62,1.48.02,3.19-1.32,4.07-3.85,2.54-13.22,7.74-29.26,10.92-1.52.3-3.09-.48-3.73-1.89-2.12-4.68-7.18-18.71-18.85-60.6-.06-.22-.14-.43-.25-.63l-1.84-3.61-23.43-48.14c-1.09-2.24.54-4.85,3.04-4.85h33.53c3.03,0,5.69,2.04,6.47,4.96Z"/>
      <path class="cls-9" d="M116.45,69.59l-23.78-49.7-2.02,46.64c-20.75,37.3-25.34,49.19-27.56,53.42-.41.78-.46,1.79.11,2.47,11.48,13.52,32.3,13.22,32.3,13.22,3.83-9.43-6.05-19.31-6.05-19.31l24.28-39.65,2.71-7.09Z"/>
    </g>
    <path class="cls-7" d="M7.01,131.67V18.33c0-1.81,1.47-3.28,3.28-3.28h26.99c10.64,0,18.33,2.15,23.05,6.44,4.72,4.3,7.23,11.39,7.53,21.28.2,4.6.3,8.82.3,12.67s-.11,7.97-.3,12.37c-.3,9.89-2.82,16.99-7.56,21.28-4.75,4.3-12.42,6.44-23.01,6.44h-6.16c-1.81,0-3.28,1.47-3.28,3.28v32.85c0,1.81-1.47,3.28-3.28,3.28h-14.27c-1.81,0-3.28-1.47-3.28-3.28ZM27.84,73.89c0,1.81,1.47,3.28,3.28,3.28h6.16c3.2,0,5.59-.71,7.15-2.14,1.57-1.42,2.44-3.46,2.59-6.11.15-2.7.25-5.62.3-8.77.05-3.15.05-6.32,0-9.52-.05-3.2-.15-6.17-.3-8.92-.15-2.7-1.01-4.75-2.59-6.14-1.57-1.4-3.96-2.1-7.15-2.1h-6.16c-1.81,0-3.28,1.47-3.28,3.28v37.13Z"/>
    <path class="cls-1" d="M210.04,136.38c-10.74,0-18.51-2.21-23.31-6.63-4.8-4.42-7.42-11.78-7.87-22.07-.05-1.8-.08-3.7-.08-5.7s.05-4.01.15-6.03c.04-.88.1-1.73.16-2.56.13-1.79,1.6-3.17,3.39-3.17h13.06c1.93,0,3.46,1.63,3.38,3.56-.1,2.56-.17,5.09-.21,7.57-.05,3.62.08,7.01.37,10.15.2,2.55,1.22,4.48,3.07,5.81,1.85,1.32,4.47,1.99,7.87,1.99,3.2,0,5.67-.66,7.42-1.99,1.75-1.32,2.78-3.26,3.07-5.81.2-1.8.32-3.6.37-5.4.05-1.8.04-3.6-.04-5.4-.08-1.8-.19-3.57-.34-5.32-.2-2.4-1.08-4.5-2.62-6.29-1.55-1.8-3.59-2.97-6.15-3.52l-12.89-3c-5.05-1.15-9.05-2.95-11.99-5.4-2.95-2.45-5.07-5.53-6.37-9.26-1.3-3.72-2.03-8.08-2.17-13.08-.05-2.35-.08-4.52-.08-6.52s.02-4.05.08-6.15c.3-6.79,1.56-12.29,3.78-16.49,2.22-4.2,5.61-7.26,10.15-9.18,4.55-1.92,10.47-2.89,17.76-2.89,10.59,0,18.29,2.2,23.08,6.6,4.8,4.4,7.39,11.72,7.8,21.96.1,2.3.11,5.05.04,8.24-.05,2-.11,3.94-.19,5.81-.07,1.82-1.57,3.26-3.39,3.26h-13.25c-1.92,0-3.45-1.6-3.39-3.52.08-2.4.13-4.77.17-7.12.05-3.5,0-6.99-.15-10.49-.1-2.5-1.06-4.41-2.88-5.73-1.83-1.32-4.46-1.98-7.91-1.98-3.25,0-5.78.66-7.61,1.98-1.83,1.32-2.86,3.24-3.11,5.73-.3,2.75-.45,5.5-.45,8.24s.15,5.5.45,8.24c.2,2.35.87,4.38,2.02,6.11,1.15,1.72,3,2.89,5.55,3.49l11.46,2.4c5.5,1.2,9.91,3.06,13.23,5.58,3.33,2.52,5.77,5.7,7.35,9.52,1.57,3.82,2.46,8.31,2.66,13.45.05,1.3.08,2.65.08,4.05s-.03,2.8-.08,4.2c-.05,1.4-.1,2.75-.15,4.05-.44,10.29-3.09,17.65-7.9,22.07-4.82,4.42-12.63,6.63-23.42,6.63Z"/>
    <path class="cls-15" d="M283.4,136.38c-10.74,0-18.51-2.21-23.31-6.63-4.8-4.42-7.42-11.78-7.87-22.07-.05-1.8-.08-3.7-.08-5.7s.05-4.01.15-6.03c.05-.94.1-1.85.17-2.75.13-1.68,1.51-2.99,3.19-2.99h13.46c1.82,0,3.25,1.53,3.18,3.35-.11,2.64-.18,5.23-.22,7.78-.05,3.62.08,7.01.37,10.15.2,2.55,1.22,4.48,3.07,5.81,1.85,1.32,4.47,1.99,7.87,1.99,3.2,0,5.67-.66,7.42-1.99,1.75-1.32,2.78-3.26,3.07-5.81.2-1.8.32-3.6.37-5.4.05-1.8.04-3.6-.04-5.4-.08-1.8-.19-3.57-.34-5.32-.2-2.4-1.08-4.5-2.62-6.29-1.55-1.8-3.59-2.97-6.15-3.52l-12.89-3c-5.05-1.15-9.05-2.95-11.99-5.4-2.95-2.45-5.07-5.53-6.37-9.26-1.3-3.72-2.03-8.08-2.17-13.08-.05-2.35-.08-4.52-.08-6.52s.02-4.05.08-6.15c.3-6.79,1.56-12.29,3.78-16.49,2.22-4.2,5.61-7.26,10.15-9.18,4.55-1.92,10.47-2.89,17.76-2.89,10.59,0,18.29,2.2,23.08,6.6,4.8,4.4,7.39,11.72,7.8,21.96.1,2.3.11,5.05.04,8.24-.05,2.07-.11,4.07-.19,6-.07,1.72-1.48,3.07-3.19,3.07h-13.65c-1.81,0-3.24-1.51-3.18-3.31.08-2.47.14-4.91.18-7.33.05-3.5,0-6.99-.15-10.49-.1-2.5-1.06-4.41-2.88-5.73-1.83-1.32-4.46-1.98-7.91-1.98-3.25,0-5.78.66-7.61,1.98-1.83,1.32-2.86,3.24-3.11,5.73-.3,2.75-.45,5.5-.45,8.24s.15,5.5.45,8.24c.2,2.35.87,4.38,2.02,6.11,1.15,1.72,3,2.89,5.55,3.49l11.46,2.4c5.5,1.2,9.91,3.06,13.23,5.58,3.33,2.52,5.77,5.7,7.35,9.52,1.57,3.82,2.46,8.31,2.66,13.45.05,1.3.08,2.65.08,4.05s-.03,2.8-.08,4.2c-.05,1.4-.1,2.75-.15,4.05-.44,10.29-3.09,17.65-7.9,22.07-4.82,4.42-12.63,6.63-23.42,6.63Z"/>
    <path class="cls-8" d="M358.05,136.38c-11.04,0-19-2.22-23.87-6.67-4.87-4.45-7.44-11.82-7.68-22.11-.1-5.89-.18-11.52-.23-16.86-.05-5.35-.07-10.62-.07-15.81s.02-10.48.07-15.85c.05-5.37.13-10.98.23-16.82.25-10.24,2.81-17.58,7.68-22,4.87-4.42,12.83-6.63,23.87-6.63s18.69,2.21,23.57,6.63c4.87,4.42,7.46,11.76,7.76,22,.25,5.9.42,11.52.53,16.86.1,5.35.15,10.63.15,15.85s-.05,10.51-.15,15.85c-.11,5.35-.28,10.94-.53,16.79-.3,10.29-2.89,17.66-7.76,22.11-4.87,4.45-12.73,6.67-23.57,6.67ZM358.05,119.29c3.69,0,6.35-.8,7.98-2.4,1.62-1.6,2.46-4.27,2.51-8.02.25-5.84.43-11.57.56-17.16.12-5.6.19-11.18.19-16.75s-.06-11.18-.19-16.82c-.13-5.65-.32-11.34-.56-17.09-.05-3.75-.89-6.42-2.51-8.02-1.63-1.6-4.29-2.4-7.98-2.4s-6.37.8-8.02,2.4c-1.65,1.6-2.52,4.27-2.62,8.02-.25,5.75-.44,11.43-.56,17.05-.12,5.62-.19,11.22-.19,16.79s.06,11.17.19,16.79c.12,5.62.31,11.35.56,17.2.1,3.75.97,6.42,2.62,8.02,1.65,1.6,4.32,2.4,8.02,2.4Z"/>
  </g>
  <g class="cls-16">
    <path class="cls-10" d="M116.45,69.59l-23.78-49.7-2.02,46.64c-20.75,37.3-25.34,49.19-27.56,53.42-.41.78-.46,1.79.11,2.47,11.48,13.52,32.3,13.22,32.3,13.22,3.83-9.43-6.05-19.31-6.05-19.31l24.28-39.65,2.71-7.09Z"/>
  </g>
  <g>
    <path class="cls-13" d="M442.62,67.99c-6.01-5.23-10.15-9.68-12.43-13.35-2.28-3.67-3.42-7.62-3.42-11.85,0-7.45,3.06-11.18,9.18-11.18,3,0,5.28.92,6.84,2.76,1.56,1.83,2.34,4.75,2.34,8.76v6.01h17.35v-4.84c0-9.46-2.25-16.71-6.75-21.77-4.51-5.06-11.15-7.59-19.94-7.59s-15.68,2.53-20.36,7.59c-4.67,5.06-7.01,12.21-7.01,21.44,0,6.79,1.5,12.87,4.51,18.27,3,5.4,8.28,11.43,15.85,18.1,6.01,5.23,10.12,9.7,12.35,13.43,2.22,3.73,3.34,8.03,3.34,12.93,0,4.12-.81,7.09-2.42,8.93-1.61,1.84-3.98,2.75-7.09,2.75-6.34,0-9.51-3.78-9.51-11.34v-8.01h-17.35v6.67c0,9.45,2.28,16.71,6.84,21.77,4.56,5.06,11.29,7.59,20.19,7.59s15.87-2.56,20.6-7.67c4.72-5.12,7.09-12.45,7.09-22.02,0-7.34-1.45-13.74-4.34-19.18s-8.17-11.51-15.85-18.18Z"/>
    <polygon class="cls-2" points="473.32 133.39 523.37 133.39 523.37 116.71 491.67 116.71 491.67 80.84 516.86 80.84 516.86 64.16 491.67 64.16 491.67 33.29 523.37 33.29 523.37 16.61 473.32 16.61 473.32 133.39"/>
    <path class="cls-3" d="M559.9,14.94c-8.9,0-15.68,2.53-20.35,7.59-4.67,5.06-7.01,12.32-7.01,21.77v61.39c0,9.45,2.34,16.71,7.01,21.77,4.67,5.06,11.45,7.59,20.35,7.59s15.68-2.53,20.35-7.59c4.67-5.06,7.01-12.32,7.01-21.77v-38.2h-26.53v16.68h9.18v22.86c0,7.57-3.17,11.34-9.51,11.34s-9.51-3.78-9.51-11.34v-63.89c0-7.67,3.17-11.51,9.51-11.51s9.51,3.84,9.51,11.51v11.18h17.35v-10.01c0-9.46-2.34-16.71-7.01-21.77-4.67-5.06-11.46-7.59-20.35-7.59Z"/>
    <path class="cls-4" d="M635.47,107.03c0,4-.81,6.9-2.42,8.68-1.61,1.78-3.92,2.67-6.92,2.67s-5.31-.89-6.92-2.67c-1.61-1.78-2.42-4.67-2.42-8.68V16.61h-18.35v89.09c0,9.45,2.34,16.71,7.01,21.77,4.67,5.06,11.45,7.59,20.35,7.59s15.68-2.53,20.35-7.59c4.67-5.06,7.01-12.32,7.01-21.77V16.61h-17.69v90.42Z"/>
    <path class="cls-14" d="M720.72,119.21v-20.52c0-6.89-.92-12.4-2.75-16.51-1.84-4.11-4.98-6.84-9.43-8.17v-.34c8.01-3.22,12.01-10.9,12.01-23.02v-7.17c0-9.12-2.17-15.88-6.51-20.27-4.34-4.39-11.23-6.59-20.68-6.59h-27.19v116.78h18.35v-50.05h6.34c4.23,0,7.2,1.06,8.93,3.17,1.72,2.11,2.58,5.84,2.58,11.18v21.35c0,4.34.11,7.34.33,9.01s.67,3.45,1.33,5.34h18.69c-.89-2-1.45-4.03-1.67-6.09-.23-2.06-.34-4.75-.34-8.09ZM702.2,54.31c0,4.45-.92,7.62-2.75,9.51s-4.59,2.84-8.26,2.84h-6.67v-33.37h8.34c3.22,0,5.59.95,7.09,2.84,1.5,1.89,2.25,4.95,2.25,9.18v9.01Z"/>
    <path class="cls-11" d="M759.92,14.94c-9.01,0-15.91,2.56-20.69,7.68-4.78,5.11-7.17,12.34-7.17,21.69v61.39c0,9.34,2.39,16.57,7.17,21.69,4.78,5.12,11.68,7.67,20.69,7.67s15.9-2.56,20.68-7.67c4.78-5.12,7.17-12.35,7.17-21.69v-61.39c0-9.34-2.39-16.57-7.17-21.69-4.78-5.12-11.68-7.68-20.68-7.68ZM769.43,106.87c0,7.67-3.17,11.51-9.51,11.51s-9.51-3.84-9.51-11.51v-63.73c0-7.67,3.17-11.51,9.51-11.51s9.51,3.84,9.51,11.51v63.73Z"/>
  </g>
  <g class="cls-12">
    <path d="M171.48,120.93c-.27.49-.61.94-1.1,1.26-3.85,2.54-13.22,7.74-29.26,10.92-1.52.3-3.09-.48-3.73-1.89-2.12-4.68-7.18-18.71-18.85-60.6-.06-.22-25.87-50.74-25.87-50.74l23.1,48.27.68,1.42,1.84,3.61c.1.2.18.42.25.63,11.67,41.88,16.73,55.91,18.85,60.6.64,1.41,2.21,2.19,3.73,1.89,16.04-3.18,25.41-8.38,29.26-10.92,1.34-.88,1.94-2.6,1.32-4.07-.06-.14-.15-.25-.22-.39Z"/>
    <path d="M113.75,73.47s-24.25,41.21-24.28,42.86c0,.26,24.28-39.65,24.28-39.65l2.71-7.09-.69-1.41-2.02,5.29Z"/>
    <path d="M68.17,55.44c0-.51-.02-1.09-.02-1.61-.02,3.4-.11,6.96-.28,10.77-.3,9.89-2.82,16.99-7.56,21.28-4.75,4.3-12.42,6.44-23.01,6.44h-6.16c-1.81,0-3.28,1.47-3.28,3.28v3.21c0-1.81,1.47-3.28,3.28-3.28h6.16c10.59,0,18.26-2.15,23.01-6.44,4.74-4.3,7.27-11.39,7.56-21.28.2-4.4.3-8.52.3-12.37Z"/>
    <path d="M31.13,33.48h6.16c3.2,0,5.59.7,7.16,2.1,1.57,1.4,2.44,3.45,2.59,6.14.15,2.75.25,5.72.3,8.92,0-1.07.02-2.13,0-3.21-.05-3.2-.15-6.17-.3-8.92-.15-2.7-1.01-4.75-2.59-6.14-1.57-1.4-3.96-2.1-7.16-2.1h-6.16c-1.81,0-3.28,1.47-3.28,3.28v3.21c0-1.81,1.47-3.28,3.28-3.28Z"/>
    <path d="M24.56,131.75h-14.27c-1.81,0-3.28-1.47-3.28-3.28v3.21c0,1.81,1.47,3.28,3.28,3.28h14.27c1.81,0,3.28-1.47,3.28-3.28v-3.21c0,1.81-1.47,3.28-3.28,3.28Z"/>
    <path d="M199.25,38.35c.25-2.5,1.28-4.41,3.11-5.73,1.82-1.32,4.36-1.98,7.61-1.98,3.45,0,6.08.66,7.91,1.98,1.82,1.32,2.78,3.24,2.88,5.73.12,2.83.06,11.97.05,14.8,0-.4.1-7.11.1-7.51.05-3.5,0-6.99-.15-10.49-.1-2.5-1.06-4.41-2.88-5.73-1.83-1.32-4.46-1.98-7.91-1.98-3.25,0-5.78.66-7.61,1.98-1.83,1.32-2.86,3.24-3.11,5.73-.3,2.75-.45,5.5-.45,8.24,0,.53.03,1.07.04,1.6.05-2.21.17-4.43.41-6.64Z"/>
    <path d="M241.51,100.42c-.05,1.4-.1,2.75-.15,4.05-.44,10.29-3.09,17.65-7.9,22.07-4.82,4.42-12.63,6.63-23.42,6.63s-18.51-2.21-23.31-6.63c-4.8-4.42-7.42-11.78-7.87-22.07-.03-1.14-.04-2.38-.05-3.6,0,.37-.03.74-.03,1.11,0,2,.03,3.9.08,5.7.45,10.29,3.07,17.65,7.87,22.07,4.8,4.42,12.56,6.63,23.31,6.63s18.6-2.21,23.42-6.63c4.82-4.42,7.46-11.78,7.9-22.07.05-1.3.1-2.65.15-4.05.05-1.4.08-2.8.08-4.2,0-.54-.02-1.05-.03-1.58-.01.85-.02,1.71-.05,2.56Z"/>
    <path d="M186.88,77.17c2.95,2.45,6.94,4.25,11.99,5.4l12.89,3c2.55.55,4.6,1.72,6.15,3.52,1.55,1.8,2.42,3.9,2.62,6.29.15,1.75.26,3.52.34,5.32.03.82,0,1.64.02,2.46,0-.09.02-.18.02-.28.05-1.8.03-3.6-.04-5.4-.08-1.8-.19-3.57-.34-5.32-.2-2.4-1.08-4.5-2.62-6.29-1.55-1.8-3.6-2.97-6.15-3.52l-12.89-3c-5.05-1.15-9.05-2.95-11.99-5.4-2.95-2.45-5.07-5.53-6.37-9.26-1.3-3.72-2.03-8.08-2.17-13.08-.03-1.53-.05-2.96-.06-4.34,0,.34-.01.69-.01,1.03,0,2,.02,4.17.08,6.52.15,5,.87,9.36,2.17,13.08,1.3,3.72,3.42,6.81,6.37,9.26Z"/>
    <path d="M220.73,55.97c-.06,1.92,1.46,3.52,3.39,3.52h13.25c1.83,0,3.32-1.44,3.39-3.26.08-1.87.14-3.8.19-5.81.05-2.05.05-3.84.03-5.52,0,.77,0,1.48-.03,2.31-.05,2-.11,3.94-.19,5.81-.08,1.82-1.57,3.26-3.39,3.26h-13.25c-1.78,0-3.17-1.4-3.32-3.13-.02.94-.04,1.87-.07,2.82Z"/>
    <path d="M260.25,77.17c2.95,2.45,6.94,4.25,11.99,5.4l12.89,3c2.55.55,4.6,1.72,6.15,3.52,1.55,1.8,2.42,3.9,2.62,6.29.15,1.75.26,3.52.34,5.32.03.82,0,1.64.02,2.46,0-.09.02-.18.02-.27.05-1.8.03-3.6-.04-5.4-.08-1.8-.19-3.57-.34-5.32-.2-2.4-1.08-4.5-2.62-6.29-1.55-1.8-3.59-2.97-6.15-3.52l-12.89-3c-5.05-1.15-9.05-2.95-11.99-5.4-2.95-2.45-5.07-5.53-6.37-9.26-1.3-3.72-2.03-8.08-2.17-13.08-.03-1.53-.05-2.96-.06-4.34,0,.34-.01.69-.01,1.03,0,2,.02,4.17.08,6.52.15,5,.87,9.36,2.17,13.08,1.3,3.72,3.42,6.81,6.37,9.26Z"/>
    <path d="M272.61,38.35c.25-2.5,1.28-4.41,3.11-5.73,1.82-1.32,4.36-1.98,7.61-1.98,3.45,0,6.08.66,7.91,1.98,1.82,1.32,2.78,3.24,2.88,5.73.12,2.83.05,12.18.04,15.01,0-.4.1-7.33.11-7.73.05-3.5,0-6.99-.15-10.49-.1-2.5-1.06-4.41-2.88-5.73-1.83-1.32-4.46-1.98-7.91-1.98-3.25,0-5.78.66-7.61,1.98-1.83,1.32-2.86,3.24-3.11,5.73-.3,2.75-.45,5.5-.45,8.24,0,.53.03,1.07.04,1.6.05-2.21.17-4.43.41-6.64Z"/>
    <path d="M314.88,100.42c-.05,1.4-.1,2.75-.15,4.05-.44,10.29-3.09,17.65-7.9,22.07-4.82,4.42-12.63,6.63-23.42,6.63s-18.51-2.21-23.31-6.63c-4.8-4.42-7.42-11.78-7.87-22.07-.03-1.14-.04-2.38-.05-3.6,0,.37-.03.74-.03,1.11,0,2,.03,3.9.08,5.7.45,10.29,3.07,17.65,7.87,22.07,4.8,4.42,12.56,6.63,23.31,6.63s18.6-2.21,23.42-6.63c4.82-4.42,7.46-11.78,7.9-22.07.05-1.3.1-2.65.15-4.05.05-1.4.08-2.8.08-4.2,0-.54-.02-1.05-.03-1.58-.01.85-.02,1.71-.05,2.56Z"/>
    <path d="M294.09,56.17c-.06,1.81,1.38,3.31,3.18,3.31h13.65c1.72,0,3.12-1.36,3.19-3.07.08-1.93.14-3.92.19-6,.05-2.04.05-3.84.03-5.51,0,.77,0,1.48-.03,2.31-.05,2.07-.11,4.07-.19,6-.07,1.72-1.48,3.07-3.19,3.07h-13.65c-1.67,0-2.96-1.3-3.12-2.92-.03.94-.04,1.86-.07,2.81Z"/>
    <path d="M389.9,87.61c-.1,5.35-.27,10.94-.53,16.79-.3,10.29-2.89,17.66-7.76,22.11-4.87,4.45-12.73,6.67-23.57,6.67s-19-2.22-23.87-6.67c-4.87-4.45-7.44-11.82-7.68-22.11-.1-5.89-.18-11.52-.23-16.86-.04-4.8-.06-9.53-.06-14.21,0,.53,0,1.08,0,1.61,0,5.2.02,10.47.07,15.81.05,5.35.13,10.97.23,16.86.25,10.29,2.81,17.66,7.68,22.11,4.87,4.45,12.83,6.67,23.87,6.67s18.7-2.22,23.57-6.67c4.87-4.45,7.46-11.82,7.76-22.11.25-5.85.42-11.44.53-16.79.1-5.35.15-10.63.15-15.85,0-.53-.01-1.07-.02-1.6,0,4.71-.04,9.44-.13,14.25Z"/>
    <path d="M346.84,58.1c.12-5.62.31-11.3.56-17.05.1-3.75.97-6.42,2.62-8.02,1.65-1.6,4.32-2.4,8.02-2.4s6.35.8,7.98,2.4c1.62,1.6,2.46,4.27,2.51,8.02.25,5.75.43,11.44.56,17.09.11,5.11.16,13.38.17,18.43,0-.53.02-4.28.02-4.81,0-5.57-.06-11.18-.19-16.82-.13-5.65-.32-11.34-.56-17.09-.05-3.75-.89-6.42-2.51-8.02-1.63-1.6-4.29-2.4-7.98-2.4s-6.37.8-8.02,2.4c-1.65,1.6-2.52,4.27-2.62,8.02-.25,5.75-.44,11.43-.56,17.05-.12,5.62-.19,11.22-.19,16.79,0,.53.02,4.28.02,4.81.01-5.04.06-13.31.17-18.39Z"/>
    <path d="M95.52,132.43s-20.62.29-32.13-13.05c-.1.19-.19.39-.28.56-.41.78-.46,1.79.11,2.47,11.48,13.52,32.3,13.22,32.3,13.22.85-2.09,1-4.2.76-6.22-.13,1-.35,2.01-.76,3.01Z"/>
  </g>
  <g class="cls-12">
    <path d="M435.95,31.62c3,0,5.28.92,6.84,2.76,1.56,1.83,2.34,4.75,2.34,8.76v-3.21c0-4-.78-6.92-2.34-8.76-1.56-1.84-3.84-2.76-6.84-2.76-6.12,0-9.18,3.73-9.18,11.18,0,.48.07.95.1,1.42.48-6.24,3.48-9.39,9.08-9.39Z"/>
    <path d="M455.72,124.18c-4.73,5.12-11.6,7.67-20.6,7.67s-15.63-2.53-20.19-7.59c-4.56-5.06-6.84-12.32-6.84-21.77v3.21c0,9.45,2.28,16.71,6.84,21.77,4.56,5.06,11.29,7.59,20.19,7.59s15.87-2.56,20.6-7.67c4.72-5.12,7.09-12.45,7.09-22.02,0-.42-.05-.81-.06-1.23-.31,8.6-2.64,15.29-7.03,20.05Z"/>
    <path d="M428.77,80.34c6.01,5.23,10.12,9.7,12.35,13.43,1.98,3.33,3.03,7.15,3.25,11.41.03-.56.09-1.08.09-1.69,0-4.89-1.12-9.2-3.34-12.93-2.23-3.73-6.34-8.2-12.35-13.43-7.56-6.67-12.85-12.7-15.85-18.1-2.83-5.08-4.27-10.79-4.44-17.1-.03.68-.07,1.34-.07,2.04,0,6.79,1.5,12.87,4.51,18.27,3,5.4,8.28,11.43,15.85,18.1Z"/>
    <rect x="445.13" y="45.94" width="17.35" height="3.21"/>
    <rect x="473.32" y="130.18" width="50.05" height="3.21"/>
    <rect x="491.67" y="77.63" width="25.19" height="3.21"/>
    <rect x="491.67" y="30.09" width="31.7" height="3.21"/>
    <path d="M560.4,31.62c6.34,0,9.51,3.84,9.51,11.51v-3.21c0-7.67-3.17-11.51-9.51-11.51s-9.51,3.84-9.51,11.51v3.21c0-7.67,3.17-11.51,9.51-11.51Z"/>
    <rect x="560.73" y="80.97" width="9.18" height="3.21"/>
    <rect x="569.91" y="51.1" width="17.35" height="3.21"/>
    <path d="M559.9,131.85c-8.9,0-15.68-2.53-20.35-7.59-4.67-5.06-7.01-12.32-7.01-21.77v3.21c0,9.45,2.34,16.71,7.01,21.77,4.67,5.06,11.45,7.59,20.35,7.59s15.68-2.53,20.35-7.59c4.67-5.06,7.01-12.32,7.01-21.77v-3.21c0,9.45-2.34,16.71-7.01,21.77-4.67,5.06-11.46,7.59-20.35,7.59Z"/>
    <path d="M625.8,131.85c-8.9,0-15.68-2.53-20.35-7.59-4.67-5.06-7.01-12.32-7.01-21.77v3.21c0,9.45,2.34,16.71,7.01,21.77,4.67,5.06,11.45,7.59,20.35,7.59s15.68-2.53,20.35-7.59c4.67-5.06,7.01-12.32,7.01-21.77v-3.21c0,9.45-2.34,16.71-7.01,21.77-4.67,5.06-11.46,7.59-20.35,7.59Z"/>
    <path d="M704.03,130.18c-.67-1.89-1.11-3.67-1.33-5.34s-.33-4.67-.33-9.01v3.21c0,4.34.11,7.34.33,9.01s.67,3.45,1.33,5.34h18.69c-.47-1.06-.84-2.13-1.12-3.21h-17.57Z"/>
    <path d="M699.95,36.13c1.5,1.89,2.25,4.95,2.25,9.18v-3.21c0-4.23-.75-7.28-2.25-9.18-1.5-1.89-3.87-2.84-7.09-2.84h-8.34v3.21h8.34c3.22,0,5.59.95,7.09,2.84Z"/>
    <path d="M702.37,94.48c0-5.34-.86-9.06-2.58-11.18-1.73-2.11-4.7-3.17-8.93-3.17h-6.34v3.21h6.34c4.23,0,7.2,1.06,8.93,3.17,1.72,2.11,2.58,5.84,2.58,11.18v-3.21Z"/>
    <path d="M720.55,50.64v-3.21c-.28,12.06-4,21.65-12.01,24.88v1.37s1.53-.65,3.18-1.66c5.94-3.84,8.83-10.94,8.83-21.38Z"/>
    <rect x="666.17" y="130.18" width="18.35" height="3.21"/>
    <path d="M759.92,131.85c-9.01,0-15.91-2.56-20.69-7.67-4.78-5.12-7.17-12.35-7.17-21.69v3.21c0,9.34,2.39,16.57,7.17,21.69,4.78,5.12,11.68,7.67,20.69,7.67s15.9-2.56,20.68-7.67c4.78-5.12,7.17-12.35,7.17-21.69v-3.21c0,9.34-2.39,16.57-7.17,21.69-4.78,5.12-11.68,7.67-20.68,7.67Z"/>
    <path d="M759.92,31.62c6.34,0,9.51,3.84,9.51,11.51v-3.21c0-7.67-3.17-11.51-9.51-11.51s-9.51,3.84-9.51,11.51v3.21c0-7.67,3.17-11.51,9.51-11.51Z"/>
  </g>
  <g class="cls-12">
    <path class="cls-6" d="M96.27,132.62c.75-7.85-4.63-13.73-6.78-16.3l-1.16,1.9s7.1,7.3,7.95,14.4Z"/>
    <path class="cls-6" d="M157.78,112.68c-1.45-.21-2.59-1.37-2.83-2.82l-7.68-46.5c-.02-.11-.04-.22-.07-.33l-11.15-41.48c-.79-2.93-3.44-4.96-6.47-4.96h-33.53c-1.94,0-3.34,1.58-3.36,3.33l.62,1.31c.6-.84,1.56-1.43,2.74-1.43h33.53c3.03,0,5.69,2.04,6.47,4.96l11.15,41.48c.03.11.05.22.07.33l7.68,46.5c.24,1.45,1.37,2.61,2.83,2.82,3.78.55,10.93,2.38,13.7,8.26.47-.86.62-1.87.22-2.82-2.62-6.21-10.05-8.08-13.92-8.65Z"/>
    <path class="cls-6" d="M90.66,66.53c-20.75,37.3-25.34,49.19-27.56,53.42-.41.78-.46,1.79.11,2.47.05.06.11.11.17.18,2.33-4.67,7.34-17.03,28.17-53.75,0,0,1.14-48.41,1.14-48.91l-.02-.04-2.02,46.64Z"/>
    <path class="cls-6" d="M68.15,57.03c0-.52.02-1.08.02-1.59,0-3.85-.11-8.07-.3-12.67-.3-9.89-2.81-16.99-7.53-21.28-4.72-4.3-12.4-6.44-23.05-6.44H10.29c-1.81,0-3.28,1.47-3.28,3.28v3.21c0-1.81,1.47-3.28,3.28-3.28h26.99c10.64,0,18.33,2.15,23.05,6.44,4.72,4.3,7.23,11.39,7.53,21.28.17,3.98.26,7.63.28,11.05Z"/>
    <path class="cls-6" d="M44.44,75.04c-1.57,1.42-3.96,2.14-7.16,2.14h-6.16c-1.81,0-3.28-1.47-3.28-3.28v3.21c0,1.81,1.47,3.28,3.28,3.28h6.16c3.2,0,5.59-.71,7.16-2.14,1.58-1.42,2.44-3.46,2.59-6.11.15-2.7.25-5.62.3-8.77.02-1.06,0-2.14,0-3.21-.05,3.15-.15,6.07-.3,8.77-.15,2.65-1.01,4.68-2.59,6.11Z"/>
    <path class="cls-6" d="M238.85,81.93c-1.58-3.82-4.02-6.99-7.35-9.52-3.32-2.52-7.73-4.39-13.23-5.58l-11.46-2.4c-2.55-.6-4.4-1.76-5.55-3.49-1.15-1.72-1.82-3.76-2.02-6.11-.24-2.21-.36-4.43-.41-6.64-.01.53-.04,1.07-.04,1.6,0,2.75.15,5.5.45,8.24.2,2.35.87,4.38,2.02,6.11,1.15,1.72,3,2.89,5.55,3.49l11.46,2.4c5.5,1.2,9.91,3.06,13.23,5.58,3.33,2.52,5.77,5.7,7.35,9.52,1.57,3.82,2.46,8.31,2.66,13.45.03.79.03,1.64.05,2.47,0-.54.03-1.09.03-1.63,0-1.4-.03-2.75-.08-4.05-.2-5.14-1.09-9.63-2.66-13.45Z"/>
    <path class="cls-6" d="M220.53,111.5c-.3,2.55-1.32,4.48-3.07,5.81-1.75,1.32-4.22,1.99-7.42,1.99-3.4,0-6.02-.66-7.87-1.99-1.85-1.32-2.87-3.26-3.07-5.81-.23-2.46-.33-5.11-.35-7.86,0,.3-.02.61-.03.91-.05,3.62.08,7.01.37,10.15.2,2.55,1.22,4.48,3.07,5.81,1.85,1.32,4.47,1.99,7.87,1.99,3.2,0,5.67-.66,7.42-1.99,1.75-1.32,2.78-3.26,3.07-5.81.2-1.8.32-3.6.37-5.4.03-.98-.01-1.96-.02-2.93-.06,1.71-.17,3.41-.36,5.12Z"/>
    <path class="cls-6" d="M192.27,19.71c4.55-1.92,10.47-2.89,17.76-2.89,10.59,0,18.29,2.2,23.08,6.6,4.8,4.4,7.4,11.72,7.8,21.96.04.83.05,1.78.06,2.73.02-2.2.01-4.23-.06-5.94-.4-10.24-3-17.56-7.8-21.96-4.8-4.4-12.49-6.6-23.08-6.6-7.3,0-13.21.96-17.76,2.89-4.54,1.92-7.93,4.98-10.15,9.18-2.22,4.2-3.48,9.69-3.78,16.49-.05,2.1-.08,4.15-.08,6.15,0,.69,0,1.44.01,2.18,0-1.68.02-3.37.06-5.11.3-6.79,1.56-12.29,3.78-16.49,2.23-4.2,5.61-7.26,10.15-9.18Z"/>
    <path class="cls-6" d="M198.93,93.77c.08-1.93-1.45-3.56-3.38-3.56h-13.06c-1.79,0-3.26,1.38-3.39,3.17-.06.83-.12,1.69-.16,2.56-.1,2.02-.15,4.04-.15,6.03,0,.74.02,1.39.03,2.1.02-1.63.04-3.27.12-4.92.04-.87.1-1.73.16-2.56.13-1.79,1.6-3.17,3.39-3.17h13.06c1.77,0,3.13,1.38,3.3,3.09.03-.92.04-1.81.08-2.74Z"/>
    <path class="cls-6" d="M272.3,93.56c.07-1.82-1.36-3.35-3.18-3.35h-13.46c-1.69,0-3.06,1.31-3.19,2.99-.07.89-.13,1.81-.17,2.75-.1,2.02-.15,4.04-.15,6.03,0,.74.02,1.39.03,2.1.02-1.63.04-3.27.12-4.92.05-.94.1-1.85.17-2.75.13-1.68,1.51-2.99,3.19-2.99h13.46c1.65,0,2.93,1.28,3.1,2.88.03-.92.04-1.81.08-2.74Z"/>
    <path class="cls-6" d="M265.64,19.71c4.55-1.92,10.47-2.89,17.76-2.89,10.59,0,18.29,2.2,23.08,6.6,4.8,4.4,7.4,11.72,7.8,21.96.04.83.05,1.78.06,2.73.02-2.2.01-4.23-.06-5.94-.4-10.24-3-17.56-7.8-21.96-4.8-4.4-12.49-6.6-23.08-6.6-7.3,0-13.21.96-17.76,2.89-4.54,1.92-7.93,4.98-10.15,9.18-2.22,4.2-3.48,9.69-3.78,16.49-.05,2.1-.08,4.15-.08,6.15,0,.69,0,1.44.01,2.18,0-1.68.02-3.37.06-5.11.3-6.79,1.56-12.29,3.78-16.49,2.23-4.2,5.61-7.26,10.15-9.18Z"/>
    <path class="cls-6" d="M312.22,81.93c-1.58-3.82-4.02-6.99-7.35-9.52-3.32-2.52-7.73-4.39-13.23-5.58l-11.46-2.4c-2.55-.6-4.4-1.76-5.55-3.49-1.15-1.72-1.82-3.76-2.02-6.11-.24-2.21-.36-4.43-.41-6.64-.01.53-.04,1.07-.04,1.6,0,2.75.15,5.5.45,8.24.2,2.35.87,4.38,2.02,6.11,1.15,1.72,3,2.89,5.55,3.49l11.46,2.4c5.5,1.2,9.91,3.06,13.23,5.58,3.33,2.52,5.77,5.7,7.35,9.52,1.57,3.82,2.46,8.31,2.66,13.45.03.79.03,1.64.05,2.47,0-.54.03-1.09.03-1.63,0-1.4-.03-2.75-.08-4.05-.2-5.14-1.09-9.63-2.66-13.45Z"/>
    <path class="cls-6" d="M293.9,111.5c-.3,2.55-1.32,4.48-3.07,5.81-1.75,1.32-4.22,1.99-7.42,1.99-3.4,0-6.02-.66-7.87-1.99-1.85-1.32-2.87-3.26-3.07-5.81-.23-2.46-.33-5.1-.35-7.85,0,.3-.02.61-.03.91-.05,3.62.08,7.01.37,10.15.2,2.55,1.22,4.48,3.07,5.81,1.85,1.32,4.47,1.99,7.87,1.99,3.2,0,5.67-.66,7.42-1.99,1.75-1.32,2.78-3.26,3.07-5.81.2-1.8.32-3.6.37-5.4.03-.98-.01-1.95-.02-2.93-.06,1.71-.17,3.41-.36,5.12Z"/>
    <path class="cls-6" d="M369.1,91.71c-.13,5.6-.32,11.32-.56,17.16-.05,3.75-.89,6.42-2.51,8.02-1.63,1.6-4.29,2.4-7.98,2.4s-6.37-.8-8.02-2.4c-1.65-1.6-2.52-4.27-2.62-8.02-.25-5.84-.44-11.58-.56-17.2-.11-5.08-.16-10.14-.17-15.18,0,.53-.02,1.07-.02,1.6,0,5.57.06,11.17.19,16.79.12,5.62.31,11.35.56,17.2.1,3.75.97,6.42,2.62,8.02,1.65,1.6,4.32,2.4,8.02,2.4s6.35-.8,7.98-2.4c1.62-1.6,2.46-4.27,2.51-8.02.25-5.84.43-11.57.56-17.16.12-5.6.19-11.18.19-16.75,0-.53-.02-1.07-.02-1.61-.01,5.04-.06,10.09-.17,15.15Z"/>
    <path class="cls-6" d="M389.37,42.25c-.3-10.24-2.89-17.58-7.76-22-4.87-4.42-12.73-6.63-23.57-6.63s-19,2.21-23.87,6.63c-4.87,4.42-7.44,11.76-7.68,22-.1,5.84-.18,11.45-.23,16.82-.05,5.37-.07,10.65-.07,15.85,0,.53,0,1.07,0,1.6,0-4.69.02-9.42.06-14.24.05-5.37.13-10.98.23-16.82.25-10.24,2.81-17.58,7.68-22,4.87-4.42,12.83-6.63,23.87-6.63s18.69,2.21,23.57,6.63c4.87,4.42,7.46,11.76,7.76,22,.25,5.9.42,11.52.53,16.86.09,4.8.12,9.54.13,14.25,0-.53.01-1.08.01-1.6,0-5.22-.05-10.5-.15-15.85-.1-5.35-.27-10.97-.53-16.86Z"/>
  </g>
  <g class="cls-12">
    <path class="cls-6" d="M415.43,25.74c4.67-5.06,11.45-7.59,20.36-7.59s15.43,2.53,19.94,7.59c4.5,5.06,6.75,12.32,6.75,21.77v-3.21c0-9.46-2.25-16.71-6.75-21.77-4.51-5.06-11.15-7.59-19.94-7.59s-15.68,2.53-20.36,7.59c-4.67,5.06-7.01,12.21-7.01,21.44,0,.4.06.77.07,1.17.33-8.24,2.62-14.72,6.94-19.4Z"/>
    <path class="cls-6" d="M442.04,115.62c-1.61,1.84-3.98,2.75-7.09,2.75-6.34,0-9.51-3.78-9.51-11.34v3.21c0,7.57,3.17,11.34,9.51,11.34,3.11,0,5.48-.92,7.09-2.75,1.61-1.83,2.42-4.81,2.42-8.93,0-.52-.06-1.01-.09-1.52-.2,3.23-.96,5.67-2.33,7.24Z"/>
    <path class="cls-6" d="M442.62,67.99c-6.01-5.23-10.15-9.68-12.43-13.35-2.02-3.25-3.09-6.73-3.32-10.42-.04.58-.1,1.15-.1,1.78,0,4.23,1.14,8.18,3.42,11.85,2.28,3.67,6.42,8.12,12.43,13.35,7.67,6.67,12.95,12.74,15.85,18.18,2.72,5.13,4.12,11.14,4.28,17.95.02-.66.06-1.3.06-1.97,0-7.34-1.45-13.74-4.34-19.18s-8.17-11.51-15.85-18.18Z"/>
    <rect class="cls-6" x="408.09" y="99.02" width="17.35" height="3.21"/>
    <rect class="cls-6" x="491.67" y="116.71" width="31.7" height="3.21"/>
    <rect class="cls-6" x="491.67" y="64.16" width="25.19" height="3.21"/>
    <rect class="cls-6" x="473.32" y="16.61" width="50.05" height="3.21"/>
    <rect class="cls-6" x="560.73" y="67.49" width="26.53" height="3.21"/>
    <path class="cls-6" d="M560.4,118.38c-6.34,0-9.51-3.78-9.51-11.34v3.21c0,7.57,3.17,11.34,9.51,11.34s9.51-3.78,9.51-11.34v-3.21c0,7.57-3.17,11.34-9.51,11.34Z"/>
    <path class="cls-6" d="M559.9,14.94c-8.9,0-15.68,2.53-20.35,7.59-4.67,5.06-7.01,12.32-7.01,21.77v3.21c0-9.46,2.34-16.71,7.01-21.77,4.67-5.06,11.45-7.59,20.35-7.59s15.68,2.53,20.35,7.59c4.67,5.06,7.01,12.32,7.01,21.77v-3.21c0-9.46-2.34-16.71-7.01-21.77-4.67-5.06-11.46-7.59-20.35-7.59Z"/>
    <rect class="cls-6" x="635.47" y="16.61" width="17.69" height="3.21"/>
    <path class="cls-6" d="M626.13,118.38c-3,0-5.31-.89-6.92-2.67-1.61-1.78-2.42-4.67-2.42-8.68v3.21c0,4,.81,6.9,2.42,8.68,1.61,1.78,3.92,2.67,6.92,2.67s5.31-.89,6.92-2.67c1.61-1.78,2.42-4.67,2.42-8.68v-3.21c0,4-.81,6.9-2.42,8.68-1.61,1.78-3.92,2.67-6.92,2.67Z"/>
    <rect class="cls-6" x="598.44" y="16.61" width="18.35" height="3.21"/>
    <path class="cls-6" d="M720.72,98.69c0-6.89-.92-12.4-2.75-16.51-1.38-3.09-3.5-5.39-6.35-6.92-1.38-.77-3.08-1.26-3.08-1.26v1.29c4.45,1.33,7.59,5.97,9.43,10.09,1.83,4.11,2.75,9.62,2.75,16.51v-3.21Z"/>
    <path class="cls-6" d="M691.19,66.66h-6.67v3.21h6.67c3.67,0,6.42-.94,8.26-2.84s2.75-5.06,2.75-9.51v-3.21c0,4.45-.92,7.62-2.75,9.51s-4.59,2.84-8.26,2.84Z"/>
    <path class="cls-6" d="M714.04,26.41c4.34,4.39,6.51,11.15,6.51,20.27v-3.21c0-9.12-2.17-15.88-6.51-20.27-4.34-4.39-11.23-6.59-20.68-6.59h-27.19v3.21h27.19c9.45,0,16.35,2.2,20.68,6.59Z"/>
    <path class="cls-6" d="M759.92,118.38c-6.34,0-9.51-3.84-9.51-11.51v3.21c0,7.67,3.17,11.51,9.51,11.51s9.51-3.84,9.51-11.51v-3.21c0,7.67-3.17,11.51-9.51,11.51Z"/>
    <path class="cls-6" d="M759.92,14.94c-9.01,0-15.91,2.56-20.69,7.68-4.78,5.11-7.17,12.34-7.17,21.69v3.21c0-9.34,2.39-16.57,7.17-21.69,4.78-5.12,11.68-7.68,20.69-7.68s15.9,2.56,20.68,7.68c4.78,5.11,7.17,12.34,7.17,21.69v-3.21c0-9.34-2.39-16.57-7.17-21.69-4.78-5.12-11.68-7.68-20.68-7.68Z"/>
  </g>
</svg>